 <svg  version="1.0" xmlns="http://www.w3.org/2000/svg"  width="300.000000pt" height="300.000000pt" viewBox="0 0 300.000000 300.000000"  preserveAspectRatio="xMidYMid meet">  <g transform="translate(0.000000,300.000000) scale(0.100000,-0.100000)" fill="#b9ad2d" stroke="none"> <path d="M1106 2391 c-230 -229 -395 -400 -390 -405 5 -5 4 -7 -2 -3 -11 6 -101 -82 -96 -95 1 -5 -4 -7 -11 -5 -6 1 -11 -4 -10 -10 2 -7 -4 -13 -12 -13 -8 0 -15 -7 -15 -15 0 -8 -4 -14 -9 -12 -5 1 -23 -14 -41 -33 -94 -101 -284 -290 -291 -290 -5 0 -9 -4 -9 -8 0 -10 295 -305 310 -310 5 -2 10 -8 10 -14 0 -13 73 -84 83 -80 5 1 6 -1 3 -6 -7 -12 118 -134 129 -125 4 4 5 3 2 -3 -4 -7 151 -168 377 -390 l383 -379 412 410 c235 233 409 414 404 419 -4 5 -3 6 3 3 7 -4 85 70 185 174 96 100 198 205 227 234 28 29 52 57 52 61 0 15 -804 813 -813 807 -6 -3 -7 -2 -4 4 5 8 -468 487 -476 482 -1 -1 -181 -180 -401 -398z m673 89 c157 -161 268 -267 274 -263 7 3 8 2 4 -2 -10 -12 243 -266 257 -258 6 3 8 2 3 -2 -4 -5 0 -17 9 -27 14 -15 20 -16 33 -5 14 10 14 10 3 -4 -11 -14 15 -43 199 -222 l211 -205 -144 -144 c-80 -78 -180 -176 -222 -217 -61 -57 -75 -76 -65 -83 11 -7 9 -8 -4 -4 -14 5 -54 -30 -170 -150 -84 -86 -151 -161 -149 -166 1 -5 -2 -7 -7 -4 -5 3 -119 -107 -254 -244 l-244 -251 -42 42 c-23 24 -51 55 -62 71 -11 15 -25 25 -31 22 -6 -4 -8 -3 -5 3 6 9 -30 47 -45 48 -5 0 -7 3 -5 6 4 11 -25 39 -34 33 -5 -3 -8 0 -7 7 2 7 -3 13 -9 14 -7 0 -13 5 -13 10 -1 17 -133 144 -143 138 -6 -3 -7 -2 -4 4 6 10 -37 58 -51 58 -4 0 -6 3 -5 7 1 3 -179 186 -401 406 l-404 399 284 278 c156 153 281 282 277 288 -3 6 -1 7 4 4 6 -4 163 148 349 338 187 190 342 345 345 345 3 0 124 -122 268 -270z m-679 -114 c0 -2 -8 -10 -17 -17 -16 -13 -17 -12 -4 4 13 16 21 21 21 13z m-84 -91 c-1 -8 -5 -17 -8 -21 -5 -4 -4 16 1 34 3 9 9 -1 7 -13z m-29 -30 c0 -8 -4 -12 -9 -9 -5 3 -6 10 -3 15 9 13 12 11 12 -6z m-36 -39 c-12 -7 -18 -16 -14 -21 4 -4 3 -5 -4 -2 -7 4 -20 -7 -33 -28 -20 -32 -60 -65 -60 -49 0 14 114 123 123 117 5 -3 0 -11 -12 -17z m1145 -8 c12 -14 13 -18 3 -10 -9 6 -18 10 -21 7 -2 -3 -5 2 -5 10 0 19 0 19 23 -7z m208 -220 c-3 -5 -10 -6 -15 -2 -5 3 -7 9 -4 14 3 4 -2 13 -10 20 -8 7 -15 9 -15 4 0 -4 -16 7 -35 26 -19 19 -35 40 -35 48 0 7 -4 11 -8 8 -11 -6 -55 43 -59 63 -1 8 41 -28 92 -79 52 -52 92 -97 89 -102z m-13 -992 c-12 -7 -19 -15 -16 -18 3 -3 -1 -8 -10 -11 -21 -9 -19 3 6 30 12 12 26 20 32 16 5 -3 0 -11 -12 -17z m-1264 -282 c0 -8 -3 -11 -6 -8 -3 3 -6 10 -6 15 0 5 -3 9 -7 9 -13 0 -195 184 -191 193 2 4 -2 10 -11 13 -8 3 -17 13 -21 22 -3 9 50 -38 118 -106 68 -68 124 -130 124 -138z m1219 234 c4 -7 3 -8 -4 -4 -7 4 -12 2 -12 -3 0 -6 -5 -11 -11 -11 -8 0 -8 5 1 15 15 18 17 18 26 3z m-52 -53 c-15 -14 -29 -25 -31 -25 -2 0 4 11 13 25 9 14 23 25 31 25 9 0 4 -9 -13 -25z m-50 -37 c-19 -31 -68 -88 -72 -83 -3 3 -14 -7 -24 -22 -11 -18 -18 -22 -18 -12 0 19 44 62 53 52 4 -3 7 0 7 7 0 8 12 27 27 42 29 30 39 36 27 16z"/> <path d="M1880 2120 l-65 -5 -3 -305 c-2 -278 -1 -306 15 -317 18 -14 101 -17 119 -5 10 7 15 627 4 634 -3 1 -34 1 -70 -2z m48 -32 c1 -5 2 -17 2 -28 0 -17 -7 -20 -51 -20 -42 0 -49 2 -40 13 6 8 8 17 4 21 -4 4 -1 11 7 17 17 10 74 8 78 -3z m-10 -65 c-15 -2 -42 -2 -60 0 -18 2 -6 4 27 4 33 0 48 -2 33 -4z m16 -22 c15 -24 -7 -41 -55 -41 -41 0 -49 3 -49 18 0 10 3 22 7 25 10 10 91 8 97 -2z m4 -260 c-3 -115 -9 -214 -12 -220 -4 -6 -25 -11 -47 -11 l-40 0 0 43 c0 23 -2 122 -5 220 l-4 177 56 0 57 0 -5 -209z"/> <path d="M1485 2000 c-4 -6 -6 -23 -4 -38 1 -15 -6 -44 -15 -64 -14 -32 -21 -38 -46 -38 -70 0 -180 -153 -180 -251 l0 -41 -42 6 c-140 19 -168 19 -188 1 -22 -20 -26 -55 -8 -73 9 -9 78 -12 250 -12 205 0 238 2 238 15 0 8 4 15 9 15 5 0 11 -7 15 -15 7 -20 75 -20 82 0 4 8 0 23 -7 31 -22 26 -10 74 34 138 33 49 42 70 42 106 1 26 4 51 8 57 4 7 1 31 -8 55 -8 24 -15 60 -15 81 0 39 -10 47 -30 22 -7 -8 -28 -15 -47 -15 -19 0 -41 7 -49 15 -18 18 -30 19 -39 5z m86 -53 c6 6 18 9 25 6 8 -3 14 0 14 6 0 6 4 11 8 11 13 0 41 -123 31 -136 -5 -6 -6 -25 -3 -41 7 -37 -30 -113 -84 -171 -7 -8 -10 -18 -7 -23 4 -5 -2 -9 -12 -10 -16 0 -16 -1 2 -9 11 -5 15 -9 9 -9 -6 -1 -11 -8 -11 -16 0 -8 4 -12 8 -10 9 6 20 -21 12 -29 -11 -10 -22 -7 -43 14 l-21 21 -20 -23 c-15 -17 -22 -20 -26 -9 -5 11 -7 11 -14 0 -8 -12 -11 -11 -19 1 -5 8 -10 10 -10 4 0 -15 -273 -15 -282 0 -6 8 -8 7 -8 -2 0 -9 -13 -12 -40 -10 -22 1 -40 6 -40 11 0 4 -5 5 -11 1 -7 -4 -9 2 -7 17 3 27 26 29 151 14 79 -9 87 -4 87 59 0 94 101 226 172 226 26 0 32 7 60 65 29 64 31 65 49 49 14 -13 22 -15 30 -7z"/> <path d="M1595 1363 c-38 -9 -65 -44 -65 -82 1 -41 20 -68 70 -95 41 -22 70 -46 70 -57 0 -16 -32 -39 -54 -39 -26 0 -56 29 -56 53 0 9 -7 17 -16 17 -12 0 -14 -10 -12 -47 l3 -48 47 -9 c64 -12 119 15 132 67 12 47 -8 78 -74 115 -27 15 -52 33 -55 40 -9 23 14 52 41 52 19 0 28 -8 40 -36 18 -44 38 -40 42 10 3 34 0 38 -32 51 -36 15 -46 16 -81 8z m-20 -50 c-18 -34 -6 -57 43 -82 78 -41 102 -87 65 -128 -10 -10 -15 -14 -10 -9 4 6 7 20 7 32 0 22 -23 45 -90 87 -42 27 -53 76 -24 108 23 26 25 24 9 -8z m112 12 c9 -24 -1 -27 -15 -5 -8 13 -8 20 -2 20 6 0 13 -7 17 -15z m-121 -243 c-9 -8 -26 10 -26 26 1 15 2 15 15 -2 8 -11 13 -21 11 -24z"/> <path d="M990 1346 c0 -7 8 -16 18 -18 16 -5 17 -13 10 -104 -5 -54 -6 -105 -3 -111 2 -7 -5 -17 -15 -23 -34 -18 -22 -30 30 -30 38 0 50 4 50 15 0 8 -7 15 -15 15 -11 0 -14 15 -13 78 1 42 -2 88 -6 101 -6 16 -5 21 3 17 6 -4 11 0 11 8 0 36 20 11 60 -76 46 -101 46 -101 32 -106 -7 -2 -56 93 -75 148 -3 9 -6 6 -6 -8 -1 -31 68 -192 83 -192 6 0 28 44 49 98 22 53 43 106 48 117 5 11 8 29 6 40 -1 14 5 21 23 23 20 3 22 2 11 -11 -7 -9 -10 -29 -7 -49 3 -18 8 -71 10 -117 4 -64 2 -81 -7 -72 -6 6 -14 51 -17 99 -5 69 -8 81 -14 58 -5 -15 -6 -56 -3 -91 6 -58 4 -63 -14 -68 -40 -11 -8 -27 52 -27 58 0 81 16 40 27 -15 4 -19 13 -18 41 1 21 -2 72 -6 114 -7 72 -6 77 13 83 39 12 23 35 -25 35 -44 0 -45 0 -71 -55 -14 -30 -34 -78 -43 -106 l-18 -50 -20 53 c-12 29 -32 77 -44 105 -24 52 -25 53 -66 53 -30 0 -43 -4 -43 -14z"/> <path d="M1365 1351 c-3 -6 4 -16 17 -21 22 -11 23 -16 23 -125 0 -100 -2 -115 -17 -119 -10 -2 -18 -9 -18 -15 0 -7 25 -11 65 -11 66 0 85 13 43 29 -22 8 -23 12 -20 121 3 102 5 113 23 117 11 3 18 11 16 17 -5 15 -123 21 -132 7z m79 -89 c-3 -167 -4 -182 -13 -182 -5 0 -10 55 -10 122 -1 67 -4 125 -7 130 -3 4 3 8 13 8 16 0 18 -9 17 -78z"/> <path d="M1735 1351 c-10 -9 -4 -19 15 -24 18 -5 20 -14 20 -106 0 -97 1 -102 29 -133 26 -29 34 -32 85 -32 48 0 61 5 84 27 26 26 27 32 27 133 0 101 1 105 23 111 42 10 17 28 -41 29 -41 1 -57 -2 -57 -11 0 -7 10 -15 23 -18 22 -6 22 -8 16 -106 -3 -55 -11 -107 -18 -115 -26 -31 -110 -2 -111 38 -6 180 -6 181 18 184 13 2 21 9 19 15 -4 12 -122 19 -132 8z m80 -17 c-6 -2 -8 -43 -5 -108 4 -84 9 -108 24 -125 18 -20 12 -28 -10 -13 -28 18 -38 60 -39 154 0 92 1 98 20 97 11 0 16 -2 10 -5z"/> <path d="M1677 1030 c-8 -12 -20 -20 -28 -18 -7 2 -14 -6 -15 -17 -1 -11 -11 -38 -23 -59 -25 -48 -19 -60 28 -51 62 12 96 12 103 1 5 -8 13 -8 25 0 10 5 26 8 35 6 15 -3 15 -7 5 -23 -6 -10 -18 -19 -26 -19 -11 0 -12 -3 -4 -11 19 -19 43 -2 63 43 11 24 20 36 20 27 0 -18 57 -32 66 -17 3 5 9 6 14 3 5 -3 11 4 15 15 8 25 25 27 18 2 -4 -16 3 -19 67 -20 56 -2 72 1 77 13 3 9 -2 22 -13 30 -18 13 -18 14 4 8 16 -4 22 -1 22 11 0 9 -8 16 -20 16 -22 0 -46 -35 -30 -45 19 -12 11 -26 -9 -16 -10 6 -21 7 -25 4 -3 -3 -6 -1 -6 6 0 6 6 14 14 17 7 3 14 16 14 30 0 14 -6 24 -14 24 -8 0 -14 -7 -14 -15 0 -8 -5 -15 -11 -15 -6 0 -9 -7 -5 -15 3 -9 -3 -19 -17 -26 -20 -11 -21 -11 -8 4 7 9 11 23 8 30 -8 22 -47 13 -60 -13 -7 -13 -18 -25 -25 -28 -11 -3 -12 0 -3 16 6 11 11 25 11 31 0 18 -29 12 -47 -9 -20 -23 -35 -26 -27 -6 11 30 -25 23 -54 -10 -17 -19 -36 -34 -43 -34 -8 0 -3 7 9 16 12 8 22 24 22 35 0 10 5 19 10 19 6 0 10 7 10 16 0 20 -20 14 -34 -10 -19 -33 -53 -66 -67 -66 -7 0 -3 11 13 28 24 25 48 64 48 76 0 3 -6 6 -13 6 -17 0 -54 -50 -62 -83 -5 -19 -14 -26 -41 -29 -50 -6 -38 16 21 38 19 7 19 8 -2 11 -29 6 -19 33 13 33 25 0 33 15 12 23 -10 4 -10 6 0 6 14 1 17 31 3 31 -6 0 -16 -9 -24 -20z m157 -104 c-6 -16 -24 -23 -24 -8 0 10 22 33 27 28 2 -2 1 -11 -3 -20z m62 -2 c-4 -9 -9 -15 -11 -12 -3 3 -3 13 1 22 4 9 9 15 11 12 3 -3 3 -13 -1 -22z"/> <path d="M1043 1008 c-13 -6 -23 -17 -23 -25 0 -11 4 -11 22 -2 20 11 20 9 -6 -36 -20 -34 -25 -50 -17 -58 13 -13 21 -6 25 20 2 10 12 19 23 21 11 2 31 14 44 28 18 20 21 29 13 42 -13 21 -51 25 -81 10z m67 -21 c0 -16 -20 -37 -36 -37 -9 0 -9 6 -1 25 13 26 37 34 37 12z"/> <path d="M1298 1003 c-9 -10 -19 -28 -22 -40 -8 -25 -22 -30 -28 -11 -8 23 -38 16 -53 -13 -9 -16 -20 -29 -26 -29 -6 0 -6 7 1 20 11 21 6 40 -11 40 -16 0 -59 -47 -59 -65 0 -11 12 -15 50 -15 39 0 52 4 60 20 6 11 20 20 30 20 24 0 25 -8 4 -38 -14 -21 -12 -42 5 -42 4 0 13 18 20 40 7 22 18 40 26 40 8 0 12 -6 10 -12 -3 -7 0 -20 5 -28 9 -13 11 -13 20 0 6 10 10 11 10 3 0 -21 30 -15 54 12 13 14 27 25 32 25 4 0 3 -5 -4 -12 -15 -15 -16 -28 -2 -28 6 0 15 11 20 25 12 32 24 33 16 2 -5 -22 -3 -24 44 -25 51 -1 63 11 38 36 -9 9 -8 12 5 12 9 0 17 7 17 15 0 16 -9 19 -34 9 -18 -7 -22 -44 -5 -44 5 0 7 -5 3 -11 -4 -7 -10 -7 -16 -1 -6 6 -17 8 -25 5 -13 -5 -13 -2 -4 15 15 28 14 34 -6 30 -10 -1 -24 1 -30 5 -8 5 -13 3 -13 -5 0 -10 -2 -10 -9 1 -7 11 -13 7 -25 -18 -9 -17 -21 -31 -26 -31 -13 0 -13 17 0 25 15 9 12 25 -4 25 -8 0 -17 -11 -20 -25 -8 -32 -25 -33 -19 -1 4 21 2 24 -17 19 -20 -5 -21 -4 -11 15 7 13 17 19 26 16 10 -4 15 0 15 15 0 26 -21 27 -42 4z m-153 -82 c-3 -6 -11 -11 -17 -11 -6 0 -6 6 2 15 14 17 26 13 15 -4z"/> </g> </svg> 